<svg xmlns="http://www.w3.org/2000/svg">
  <defs>
    <symbol id="email" viewBox="0 0 512 512">
      <path d="M64 112c-8.8 0-16 7.2-16 16v22.1L220.5 291.7c20.7 17 50.4 17 71.1 0L464 150.1V128c0-8.8-7.2-16-16-16H64zM48 212.2V384c0 8.8 7.2 16 16 16H448c8.8 0 16-7.2 16-16V212.2L322 328.8c-38.4 31.5-93.7 31.5-132 0L48 212.2zM0 128C0 92.7 28.7 64 64 64H448c35.3 0 64 28.7 64 64V384c0 35.3-28.7 64-64 64H64c-35.3 0-64-28.7-64-64V128z"/>
    </symbol>
    <symbol id="github" viewBox="0 0 496 512">
      <path d="M165.9 397.4c0 2-2.3 3.6-5.2 3.6-3.3 .3-5.6-1.3-5.6-3.6 0-2 2.3-3.6 5.2-3.6 3-.3 5.6 1.3 5.6 3.6zm-31.1-4.5c-.7 2 1.3 4.3 4.3 4.9 2.6 1 5.6 0 6.2-2s-1.3-4.3-4.3-5.2c-2.6-.7-5.5 .3-6.2 2.3zm44.2-1.7c-2.9 .7-4.9 2.6-4.6 4.9 .3 2 2.9 3.3 5.9 2.6 2.9-.7 4.9-2.6 4.6-4.6-.3-1.9-3-3.2-5.9-2.9zM244.8 8C106.1 8 0 113.3 0 252c0 110.9 69.8 205.8 169.5 239.2 12.8 2.3 17.3-5.6 17.3-12.1 0-6.2-.3-40.4-.3-61.4 0 0-70 15-84.7-29.8 0 0-11.4-29.1-27.8-36.6 0 0-22.9-15.7 1.6-15.4 0 0 24.9 2 38.6 25.8 21.9 38.6 58.6 27.5 72.9 20.9 2.3-16 8.8-27.1 16-33.7-55.9-6.2-112.3-14.3-112.3-110.5 0-27.5 7.6-41.3 23.6-58.9-2.6-6.5-11.1-33.3 2.6-67.9 20.9-6.5 69 27 69 27 20-5.6 41.5-8.5 62.8-8.5s42.8 2.9 62.8 8.5c0 0 48.1-33.6 69-27 13.7 34.7 5.2 61.4 2.6 67.9 16 17.7 25.8 31.5 25.8 58.9 0 96.5-58.9 104.2-114.8 110.5 9.2 7.9 17 22.9 17 46.4 0 33.7-.3 75.4-.3 83.6 0 6.5 4.6 14.4 17.3 12.1C428.2 457.8 496 362.9 496 252 496 113.3 383.5 8 244.8 8zM97.2 352.9c-1.3 1-1 3.3 .7 5.2 1.6 1.6 3.9 2.3 5.2 1 1.3-1 1-3.3-.7-5.2-1.6-1.6-3.9-2.3-5.2-1zm-10.8-8.1c-.7 1.3 .3 2.9 2.3 3.9 1.6 1 3.6 .7 4.3-.7 .7-1.3-.3-2.9-2.3-3.9-2-.6-3.6-.3-4.3 .7zm32.4 35.6c-1.6 1.3-1 4.3 1.3 6.2 2.3 2.3 5.2 2.6 6.5 1 1.3-1.3 .7-4.3-1.3-6.2-2.2-2.3-5.2-2.6-6.5-1zm-11.4-14.7c-1.6 1-1.6 3.6 0 5.9 1.6 2.3 4.3 3.3 5.6 2.3 1.6-1.3 1.6-3.9 0-6.2-1.4-2.3-4-3.3-5.6-2z"/>
    </symbol>
    <symbol id="linkedin" viewBox="0 0 448 512">
      <path d="M416 32H31.9C14.3 32 0 46.5 0 64.3v383.4C0 465.5 14.3 480 31.9 480H416c17.6 0 32-14.5 32-32.3V64.3c0-17.8-14.4-32.3-32-32.3zM135.4 416H69V202.2h66.5V416zm-33.2-243c-21.3 0-38.5-17.3-38.5-38.5S80.9 96 102.2 96c21.2 0 38.5 17.3 38.5 38.5 0 21.3-17.2 38.5-38.5 38.5zm282.1 243h-66.4V312c0-24.8-.5-56.7-34.5-56.7-34.6 0-39.9 27-39.9 54.9V416h-66.4V202.2h63.7v29.2h.9c8.9-16.8 30.6-34.5 62.9-34.5 67.2 0 79.7 44.3 79.7 101.9V416z"/>
    </symbol>
    <symbol id="twitter-x" viewBox="0 0 512 512">
      <path d="M389.2 48h70.6L305.6 224.2 487 464H345L233.7 318.6 106.5 464H35.8L200.7 275.5 26.8 48H172.4L272.9 180.9 389.2 48zM364.4 421.8h39.1L151.1 88h-42L364.4 421.8z"/>
    </symbol>
    <symbol id="instagram" viewBox="0 0 18 16">
<path d="M8 0C5.829 0 5.556.01 4.703.048 3.85.088 3.269.222 2.76.42a3.9 3.9 0 0 0-1.417.923A3.9 3.9 0 0 0 .42 2.76C.222 3.268.087 3.85.048 4.7.01 5.555 0 5.827 0 8.001c0 2.172.01 2.444.048 3.297.04.852.174 1.433.372 1.942.205.526.478.972.923 1.417.444.445.89.719 1.416.923.51.198 1.09.333 1.942.372C5.555 15.99 5.827 16 8 16s2.444-.01 3.298-.048c.851-.04 1.434-.174 1.943-.372a3.9 3.9 0 0 0 1.416-.923c.445-.445.718-.891.923-1.417.197-.509.332-1.09.372-1.942C15.99 10.445 16 10.173 16 8s-.01-2.445-.048-3.299c-.04-.851-.175-1.433-.372-1.941a3.9 3.9 0 0 0-.923-1.417A3.9 3.9 0 0 0 13.24.42c-.51-.198-1.092-.333-1.943-.372C10.443.01 10.172 0 7.998 0zm-.717 1.442h.718c2.136 0 2.389.007 3.232.046.78.035 1.204.166 1.486.275.373.145.64.319.92.599s.453.546.598.92c.11.281.24.705.275 1.485.039.843.047 1.096.047 3.231s-.008 2.389-.047 3.232c-.035.78-.166 1.203-.275 1.485a2.5 2.5 0 0 1-.599.919c-.28.28-.546.453-.92.598-.28.11-.704.24-1.485.276-.843.038-1.096.047-3.232.047s-2.39-.009-3.233-.047c-.78-.036-1.203-.166-1.485-.276a2.5 2.5 0 0 1-.92-.598 2.5 2.5 0 0 1-.6-.92c-.109-.281-.24-.705-.275-1.485-.038-.843-.046-1.096-.046-3.233s.008-2.388.046-3.231c.036-.78.166-1.204.276-1.486.145-.373.319-.64.599-.92s.546-.453.92-.598c.282-.11.705-.24 1.485-.276.738-.034 1.024-.044 2.515-.045zm4.988 1.328a.96.96 0 1 0 0 1.92.96.96 0 0 0 0-1.92m-4.27 1.122a4.109 4.109 0 1 0 0 8.217 4.109 4.109 0 0 0 0-8.217m0 1.441a2.667 2.667 0 1 1 0 5.334 2.667 2.667 0 0 1 0-5.334"/>
    </symbol>
    <symbol id="facebook" viewBox="0 0 50 50">
<path d="M 25 3 C 12.861562 3 3 12.861562 3 25 C 3 36.019135 11.127533 45.138355 21.712891 46.728516 L 22.861328 46.902344 L 22.861328 29.566406 L 17.664062 29.566406 L 17.664062 26.046875 L 22.861328 26.046875 L 22.861328 21.373047 C 22.861328 18.494965 23.551973 16.599417 24.695312 15.410156 C 25.838652 14.220896 27.528004 13.621094 29.878906 13.621094 C 31.758714 13.621094 32.490022 13.734993 33.185547 13.820312 L 33.185547 16.701172 L 30.738281 16.701172 C 29.349697 16.701172 28.210449 17.475903 27.619141 18.507812 C 27.027832 19.539724 26.84375 20.771816 26.84375 22.027344 L 26.84375 26.044922 L 32.966797 26.044922 L 32.421875 29.564453 L 26.84375 29.564453 L 26.84375 46.929688 L 27.978516 46.775391 C 38.71434 45.319366 47 36.126845 47 25 C 47 12.861562 37.138438 3 25 3 z M 25 5 C 36.057562 5 45 13.942438 45 25 C 45 34.729791 38.035799 42.731796 28.84375 44.533203 L 28.84375 31.564453 L 34.136719 31.564453 L 35.298828 24.044922 L 28.84375 24.044922 L 28.84375 22.027344 C 28.84375 20.989871 29.033574 20.060293 29.353516 19.501953 C 29.673457 18.943614 29.981865 18.701172 30.738281 18.701172 L 35.185547 18.701172 L 35.185547 12.009766 L 34.318359 11.892578 C 33.718567 11.811418 32.349197 11.621094 29.878906 11.621094 C 27.175808 11.621094 24.855567 12.357448 23.253906 14.023438 C 21.652246 15.689426 20.861328 18.170128 20.861328 21.373047 L 20.861328 24.046875 L 15.664062 24.046875 L 15.664062 31.566406 L 20.861328 31.566406 L 20.861328 44.470703 C 11.816995 42.554813 5 34.624447 5 25 C 5 13.942438 13.942438 5 25 5 z" />
</symbol>
<symbol id="discord" viewBox="0 0 256 256"><path d="M104,140a12,12,0,1,1-12-12A12,12,0,0,1,104,140Zm60-12a12,12,0,1,0,12,12A12,12,0,0,0,164,128Zm74.45,64.9-67,29.71a16.17,16.17,0,0,1-21.71-9.1l-8.11-22q-6.72.45-13.63.46t-13.63-.46l-8.11,22a16.18,16.18,0,0,1-21.71,9.1l-67-29.71a15.93,15.93,0,0,1-9.06-18.51L38,58A16.07,16.07,0,0,1,51,46.14l36.06-5.93a16.22,16.22,0,0,1,18.26,11.88l3.26,12.84Q118.11,64,128,64t19.4.93l3.26-12.84a16.21,16.21,0,0,1,18.26-11.88L205,46.14A16.07,16.07,0,0,1,218,58l29.53,116.38A15.93,15.93,0,0,1,238.45,192.9ZM232,178.28,202.47,62s0,0-.08,0L166.33,56a.17.17,0,0,0-.17,0l-2.83,11.14c5,.94,10,2.06,14.83,3.42A8,8,0,0,1,176,86.31a8.09,8.09,0,0,1-2.16-.3A172.25,172.25,0,0,0,128,80a172.25,172.25,0,0,0-45.84,6,8,8,0,1,1-4.32-15.4c4.82-1.36,9.78-2.48,14.82-3.42L89.83,56s0,0-.12,0h0L53.61,61.93a.17.17,0,0,0-.09,0L24,178.33,91,208a.23.23,0,0,0,.22,0L98,189.72a173.2,173.2,0,0,1-20.14-4.32A8,8,0,0,1,82.16,170,171.85,171.85,0,0,0,128,176a171.85,171.85,0,0,0,45.84-6,8,8,0,0,1,4.32,15.41A173.2,173.2,0,0,1,158,189.72L164.75,208a.22.22,0,0,0,.21,0Z"></path></symbol>
</defs>
</svg>
